<svg xmlns="http://www.w3.org/2000/svg" viewBox="0 0 360 260" role="img" aria-labelledby="title desc">
  <title id="title">Loki Launcher emblem</title>
  <desc id="desc">A dark husky head paired with a rocket and motion swoosh</desc>
  <defs>
    <linearGradient id="swooshGradient" x1="0%" y1="50%" x2="100%" y2="10%">
      <stop offset="0%" stop-color="#0ea5e9" />
      <stop offset="60%" stop-color="#2563eb" />
      <stop offset="100%" stop-color="#6366f1" />
    </linearGradient>
    <linearGradient id="rocketBody" x1="0%" y1="0%" x2="100%" y2="100%">
      <stop offset="0%" stop-color="#111827" />
      <stop offset="100%" stop-color="#1f2937" />
    </linearGradient>
    <linearGradient id="earGradient" x1="0%" y1="0%" x2="100%" y2="100%">
      <stop offset="0%" stop-color="#1f2937" />
      <stop offset="100%" stop-color="#0f172a" />
    </linearGradient>
  </defs>
  <g transform="translate(18 12)">
    <path fill="url(#earGradient)" d="M124 24 L144 0 L168 48 L134 44 Z" />
    <path fill="#0f172a" d="M92 52 C88 38 96 26 114 26 C122 22 132 26 140 32 C150 24 170 28 176 46 L180 72 C196 78 206 98 202 122 C202 146 182 166 160 170 C152 184 136 194 116 192 C90 196 70 182 64 156 C54 138 60 118 72 104 C70 80 82 62 92 52 Z" />
    <path fill="#1f2937" d="M96 58 C90 68 86 86 90 104 C80 118 78 134 84 148 C92 162 108 170 124 168 C138 168 150 160 156 148 C178 146 192 130 192 110 C192 92 182 76 166 72 L162 46 C158 36 144 34 134 40 C124 32 110 30 102 38 C96 42 94 50 96 58 Z" />
    <path fill="#111827" d="M126 98 C136 86 156 82 168 92 C172 96 170 102 164 104 C154 106 142 112 136 124 C132 132 118 132 114 124 C108 116 114 104 126 98 Z" />
    <circle cx="152" cy="98" r="10" fill="#0f172a" />
    <circle cx="154" cy="96" r="5" fill="#f8fafc" />
    <path fill="#1e293b" d="M106 134 C100 142 104 156 116 160 C128 164 140 158 146 146" />
    <path fill="none" stroke="#0ea5e9" stroke-width="5" stroke-linecap="round" d="M112 142 C118 150 130 152 140 148" />
  </g>
  <g transform="translate(184 70)">
    <path fill="url(#rocketBody)" d="M18 46 C28 10 58 -10 94 4 C122 14 140 42 142 78 C118 96 92 104 66 100 C42 96 22 74 18 46 Z" />
    <path fill="#1d4ed8" d="M140 80 C146 90 150 108 148 122 C134 116 120 110 106 100 Z" />
    <path fill="#dc2626" d="M22 44 C12 54 4 70 0 88 C14 84 26 76 36 66 Z" />
    <ellipse cx="92" cy="52" rx="18" ry="12" fill="#0f172a" opacity="0.72" />
    <circle cx="104" cy="48" r="6" fill="#e5e7eb" />
    <circle cx="84" cy="56" r="4" fill="#93c5fd" />
  </g>
  <path fill="none" stroke="url(#swooshGradient)" stroke-width="18" stroke-linecap="round" d="M78 214 C150 236 238 210 302 144" />
  <path fill="none" stroke="url(#swooshGradient)" stroke-width="10" stroke-linecap="round" d="M96 238 C178 252 266 214 322 142" opacity="0.75" />
  <g transform="translate(70 190)">
    <text x="0" y="36" font-family="'Trebuchet MS', 'Segoe UI', sans-serif" font-size="46" font-weight="700" fill="#0f172a" letter-spacing="4">LOKI</text>
    <text x="112" y="64" font-family="'Trebuchet MS', 'Segoe UI', sans-serif" font-size="36" font-weight="600" fill="#2563eb" letter-spacing="6">LAUNCHER</text>
  </g>
</svg>
